PathFileType	4	(X/Y/Z)	Patient4_TMGait_0pt7_02_left_44.trc.trc
DataRate	CameraRate	NumFrames	NumMarkers	Units	OrigDataRate	OrigDataStartFrame	OrigNumFrames
89.171974522293	89.171974522293	5	33	mm	89.171974522293	53	       141
Frame#	Time	Sacral			L.Shoulder			Chest			R.Shoulder			Neck			R.ASIS			L.ASIS			R.Thigh.Superior			R.Thigh.Lateral			R.Thigh.Inferior			R.Patella			L.Thigh.Superior			L.Thigh.Lateral			L.Thigh.Inferior			L.Patella			L.Shank.Superior			L.Shank.Lateral			L.Shank.Inferior			R.Shank.Superior			R.Shank.Lateral			R.Shank.Inferior			R.Heel			R.Midfoot.Superior			R.Midfoot.Lateral			R.Toe			L.Heel			L.Midfoot.Lateral			L.Midfoot.Superior			L.Toe			L.Elbow			L.Wrist			R.Elbow			R.Wrist			
		X1	Y1	Z1	X2	Y2	Z2	X3	Y3	Z3	X4	Y4	Z4	X5	Y5	Z5	X6	Y6	Z6	X7	Y7	Z7	X8	Y8	Z8	X9	Y9	Z9	X10	Y10	Z10	X11	Y11	Z11	X12	Y12	Z12	X13	Y13	Z13	X14	Y14	Z14	X15	Y15	Z15	X16	Y16	Z16	X17	Y17	Z17	X18	Y18	Z18	X19	Y19	Z19	X20	Y20	Z20	X21	Y21	Z21	X22	Y22	Z22	X23	Y23	Z23	X24	Y24	Z24	X25	Y25	Z25	X26	Y26	Z26	X27	Y27	Z27	X28	Y28	Z28	X29	Y29	Z29	X30	Y30	Z30	X31	Y31	Z31	X32	Y32	Z32	X33	Y33	Z33	

53	50.973142857143	725.810664009495	1015.390608246941	422.754439641567	921.567220896464	1427.231362578248	227.931570639837	1022.576423851989	1360.548114550282	392.690600786177	942.285757941742	1447.519178209300	562.548208871446	923.005939427604	1495.969420494508	380.369220930820	948.378010654233	946.029069723812	544.635654569372	942.028458881830	961.481411771398	271.084656168946	1034.766808171748	782.950557311756	521.963633953730	998.282370253113	663.767714793716	600.842220082907	1093.313581348328	626.023533602975	526.704290847303	1112.953815472361	509.164497349965	552.149514964057	987.549916215370	752.786401432048	295.873031860069	897.328366134104	638.362896640000	239.498104781886	983.756857880200	560.298096142527	300.176073294609	984.069342777783	491.101573267504	309.455799476089	957.145151452046	419.562295968882	303.181191345384	866.623509486421	304.509867697749	253.953202696656	919.597662219110	194.411970041908	326.431158269350	1028.400469053147	439.071071774490	555.644509997099	899.105469611600	416.026989260403	608.370228911319	874.068104336352	309.818356647036	559.519979700604	667.715411974659	270.266907217637	519.230035764071	827.409874180340	198.087958198358	572.370630195657	716.973383094395	209.941451712971	598.969688764002	879.419951432960	82.671976489590	608.235873572006	792.231864488631	38.421158696072	371.556237152075	866.791354190889	34.828158957736	291.136716384494	948.941530428360	96.492361684662	317.540579844723	1078.106162982424	45.835413376026	291.159651381722	901.170787379931	1076.898436278105	108.943035638187	1005.559893132826	836.235615466048	122.140282434310	911.765623650027	1105.092965319532	691.852965844385	1117.274556982822	962.246340597486	637.444092891372	
54	50.984357142857	724.418790420057	1015.271459762260	421.941581077494	921.550043166552	1427.312228964702	227.687125625567	1021.575688285788	1360.547662242404	393.014968514128	940.298489139795	1447.319492632089	562.470347516318	922.215308932061	1495.963019968179	380.194609350255	947.054348114175	946.613814862927	544.369976290316	941.215869764133	961.722407076324	270.786083879737	1035.711745664620	786.343871307346	521.433267710130	1001.811128711367	666.677900400595	600.575595972623	1097.489114122984	630.688152023645	526.379507239057	1119.572868533462	514.381696759323	551.716087311376	985.322532572237	751.998992301449	295.938080336656	894.364008805011	638.213579382026	239.446216061397	979.874126275536	559.422387495300	300.465374393399	979.514212926905	490.222411487212	309.931859902903	952.222356158537	418.924331843407	303.576574808413	861.135726654238	304.497286646459	254.036268792309	912.909771757032	194.030683966674	326.676787207841	1036.853217984808	442.392655957148	555.728185431148	908.705413398278	415.997881654686	609.641666535560	885.962696150734	309.102879771356	560.869047332922	680.374540598727	264.396485147146	522.612853369993	842.421213568456	196.082744958440	574.170951562949	731.848218207370	204.937251591873	601.634374557130	897.465909351496	81.582387371017	608.748203209025	784.338980413566	38.476188560531	371.578295793329	858.955779405001	34.884662733673	291.177158295295	941.206800179555	96.368762950959	317.680827765645	1070.339442253822	45.407648604385	291.187224465303	910.746977903682	1077.846270941675	105.734636899928	1026.028429796258	842.178829671312	119.717849036195	902.436881294132	1105.144545904895	691.449683139762	1097.508208998456	945.173753236674	643.314231194738	
55	50.995571428571	723.093412702032	1015.051641527069	421.310019991860	921.602197102668	1427.357029022159	227.555524105827	1020.624650911067	1360.458525210383	393.433457291592	938.362387904064	1447.025133472698	562.482852890793	921.462356519686	1495.881576626781	380.122929045873	945.754687918958	947.117675395141	544.260784056221	940.427846924299	961.845556319190	270.609888536512	1036.435387040222	789.440536793815	521.087133845845	1004.849063361972	669.304024372671	600.344485161453	1101.065387795302	634.951094141867	526.055204659500	1125.475813615723	519.369748785525	551.259113876054	983.129954301902	751.184591770287	296.198151996220	891.531256929273	638.014200570812	239.492573682802	976.139333501583	558.524327614165	300.873726856091	975.110334715151	489.298251664145	310.524264579308	947.427498796385	418.226119091708	304.066384731260	855.756015824548	304.464106315569	254.170227164104	906.258972276895	193.618952235428	326.980321149816	1044.884944608624	445.386688246381	555.844974778561	918.138245883712	415.171473392780	611.029184204001	898.149468430836	307.520616816336	562.404069623233	693.654350817049	256.748127445765	526.296961875607	858.290582625711	193.180331707373	576.309428062155	747.617590546162	198.588453035643	604.657222506999	916.834593247480	79.932091486751	609.720910829828	776.445325651831	38.525835891536	371.607999102036	851.118800310256	34.938799967197	291.220217649677	933.469565743730	96.250792553610	317.831283477242	1062.574426753818	44.987865845686	291.216607347494	919.930707371331	1079.123568352779	102.667684927321	1046.181979911487	849.139216659752	117.801678745884	893.571802358927	1105.133402620534	690.946644994078	1076.501495223964	928.739483229279	649.485730872230	
56	51.006785714286	721.849807278751	1014.745616496311	420.844913676486	921.723512827986	1427.373271449637	227.542508070005	1019.729279563915	1360.290134604598	393.949886977126	936.489506301840	1446.644249815911	562.594274237510	920.754092926553	1495.735446000119	380.158635968236	944.475890085731	947.531806106883	544.311737231362	939.678411267797	961.857527625858	270.557288507045	1036.930926407538	792.206499672390	520.888060518750	1007.391150339454	671.613470387627	600.153915442174	1104.009645171189	638.746978133356	525.714352679499	1130.628466599742	524.066091959058	550.784650194085	980.981592708976	750.341310373352	296.644565453147	888.803581279054	637.762214663352	239.638570223429	972.512160616934	557.599122750635	301.390369400748	970.806733886457	488.332301279291	311.228662401298	942.717515586752	417.472845786324	304.640704902966	850.445423137419	304.409677563187	254.354015353441	899.618449625185	193.180871622443	327.338235157740	1052.449208625186	448.032566703479	556.000691623549	927.389649579522	413.568239591700	612.498901239827	910.620277624540	305.138937803796	564.090726998350	707.636324304251	247.448546535429	530.184591252179	874.976920010591	189.482106296186	578.700315212712	764.297089888032	191.041110773166	607.951742642720	937.444243032874	77.901887091737	611.124210345796	768.551792822548	38.569197474424	371.641929100787	843.276314942225	34.988226867736	291.264615915668	925.725200635599	96.139863464364	317.989998680736	1054.805175929286	44.588217947653	291.247261690406	928.638533402783	1080.695919960760	99.752298398187	1065.893243649100	857.121410844100	116.394503928360	885.190323721975	1105.065206265713	690.364824879650	1054.366121695489	913.211203747600	655.856770528779	
57	51.018000000000	720.698987437388	1014.375390140123	420.523919540583	921.909246036548	1427.366648131615	227.653259394177	1018.895347442965	1360.053961367845	394.566394573886	934.694470749050	1446.186136580097	562.812462696872	920.097595376606	1495.534769687812	380.307754188880	943.214136065533	947.848594609694	544.520772125934	938.982304130674	961.766370191308	270.630632717609	1037.185376186877	794.606829660527	520.807816743803	1009.426203778000	673.575425984368	600.012593158190	1106.288471558210	642.011966930455	525.351187356831	1134.996861601228	528.410844581649	550.310253988327	978.886216934156	749.465325539330	297.266977447538	886.150085930693	637.459127294470	239.882666574300	968.943881389866	556.643205227064	302.004552555022	966.546259814846	487.330899281693	312.036652465404	938.043491539633	416.672950648997	305.287039500778	845.160595533079	304.334733105961	254.584911628142	892.960200690459	192.721913423925	327.744549566385	1059.496953619509	450.315922989432	556.207202745653	936.447026186083	411.216514359861	614.024363990998	923.366392623331	302.042137432067	565.894712402664	722.410826871714	236.652802367989	534.174684302504	892.439927490293	185.110224072841	581.258947936498	781.903981731626	182.454905183318	611.421524668251	959.203545503185	75.685767845662	612.906621001433	760.659610533108	38.606042734929	371.675728020698	835.424521939455	35.030939668642	291.309062535144	917.970223077177	96.036775726868	318.154539969502	1047.025982456699	44.218610624139	291.279123099090	936.813619118915	1082.520389257266	97.000990884655	1085.039842655830	866.114382354519	115.492911675753	877.287732079100	1104.953581312556	689.730683448469	1031.277186073000	898.860461569215	662.314338926452	
